<svg width="96" height="40" viewBox="0 0 96 40" fill="none" xmlns="http://www.w3.org/2000/svg">
<path d="M9.37937 19.4921C8.45888 19.0981 7.73161 18.5564 7.19755 17.8671C6.66349 17.1789 6.36499 16.4017 6.3042 15.5344H10.7145C10.7764 15.9523 10.9696 16.2769 11.2952 16.5092C11.6198 16.7415 12.0225 16.8576 12.5023 16.8576C12.8735 16.8576 13.1677 16.7806 13.3848 16.6253C13.6019 16.4712 13.7094 16.2693 13.7094 16.0218C13.7094 15.6972 13.5313 15.4574 13.1753 15.3021C12.8193 15.148 12.2309 14.9765 11.4114 14.792C10.4833 14.6063 9.70935 14.3979 9.09063 14.1656C8.47191 13.9333 7.93351 13.5545 7.47761 13.028C7.02062 12.5027 6.79267 11.7906 6.79267 10.8929C6.79267 10.119 7.00108 9.41882 7.41899 8.7925C7.8369 8.16618 8.45128 7.66686 9.26431 7.29562C10.0762 6.92439 11.0554 6.73877 12.2005 6.73877C13.9026 6.73877 15.241 7.15668 16.2168 7.9925C17.1916 8.82832 17.756 9.92683 17.9113 11.288H13.8027C13.7256 10.8701 13.5433 10.5488 13.2578 10.3252C12.9712 10.1016 12.5881 9.9887 12.1094 9.9887C11.7381 9.9887 11.4548 10.0582 11.2627 10.1982C11.0695 10.3371 10.9718 10.5314 10.9718 10.7778C10.9718 11.0872 11.1498 11.3228 11.5058 11.4856C11.8619 11.6484 12.4339 11.8145 13.2231 11.9849C14.1663 12.1868 14.9522 12.4104 15.5786 12.6579C16.2049 12.9054 16.7541 13.3038 17.2263 13.853C17.6985 14.4023 17.934 15.1491 17.934 16.0924C17.934 16.8511 17.7137 17.5317 17.273 18.1352C16.8323 18.7388 16.2049 19.2142 15.3929 19.5626C14.581 19.9111 13.6247 20.0848 12.5262 20.0848C11.3495 20.0837 10.3009 19.8872 9.37937 19.4921Z" fill="#FAFAFF"/>
<path d="M20.0215 9.87147C20.5783 8.86631 21.3566 8.09236 22.3542 7.55071C23.3528 7.00905 24.4937 6.73877 25.7778 6.73877C27.4332 6.73877 28.8258 7.19141 29.9558 8.09671C31.0858 9.002 31.8131 10.2666 32.1376 11.8916H27.3094C27.0304 11.0405 26.4888 10.615 25.6844 10.615C25.1124 10.615 24.6598 10.8517 24.3265 11.3228C23.9933 11.7949 23.8272 12.4875 23.8272 13.4004C23.8272 14.3133 23.9933 15.0101 24.3265 15.4888C24.6587 15.9686 25.1113 16.2085 25.6844 16.2085C26.5051 16.2085 27.0467 15.783 27.3094 14.932H32.1376C31.8131 16.5418 31.0847 17.802 29.9558 18.7149C28.8258 19.6278 27.4332 20.0848 25.7778 20.0848C24.4937 20.0848 23.3528 19.8145 22.3542 19.2728C21.3566 18.7312 20.5783 17.9583 20.0215 16.9521C19.4646 15.9469 19.1857 14.7626 19.1857 13.4015C19.1868 12.0533 19.4657 10.8777 20.0215 9.87147Z" fill="#FAFAFF"/>
<path d="M45.8907 8.28121C46.7645 9.27877 47.202 10.6291 47.202 12.3311V19.9208H42.6527V12.9347C42.6527 12.1922 42.4595 11.6082 42.0731 11.1827C41.6855 10.7572 41.1678 10.5444 40.5176 10.5444C39.837 10.5444 39.3029 10.7572 38.9165 11.1827C38.529 11.6082 38.3358 12.1922 38.3358 12.9347V19.9208H33.7865V2.74634H38.3358V8.75773C38.7385 8.1694 39.2834 7.69396 39.9716 7.33033C40.6598 6.96669 41.4533 6.78541 42.3509 6.78541C43.8359 6.78433 45.0158 7.28365 45.8907 8.28121Z" fill="#FAFAFF"/>
<path d="M52.041 19.2719C51.0119 18.7302 50.2032 17.9574 49.6149 16.9511C49.0266 15.946 48.7324 14.7617 48.7324 13.4005C48.7324 12.0545 49.0309 10.8778 49.6269 9.87269C50.2228 8.86753 51.0347 8.09359 52.0638 7.55193C53.0928 7.01028 54.2575 6.73999 55.5568 6.73999C56.8572 6.73999 58.0209 7.01136 59.0499 7.55193C60.079 8.09359 60.892 8.86753 61.4868 9.87269C62.0828 10.8789 62.3813 12.0545 62.3813 13.4005C62.3813 14.7465 62.0828 15.9264 61.4868 16.9403C60.8909 17.9541 60.0746 18.7313 59.038 19.273C58.0013 19.8146 56.8323 20.0849 55.533 20.0849C54.2336 20.0838 53.0689 19.8135 52.041 19.2719ZM57.1243 15.4304C57.5498 14.9582 57.7625 14.2819 57.7625 13.3994C57.7625 12.5169 57.5498 11.8439 57.1243 11.3804C56.6988 10.9158 56.1756 10.6846 55.5579 10.6846C54.9392 10.6846 54.4203 10.9169 54.0024 11.3804C53.5845 11.845 53.3761 12.518 53.3761 13.3994C53.3761 14.2971 53.5769 14.9777 53.9796 15.4423C54.3813 15.9069 54.9001 16.1381 55.5351 16.1381C56.168 16.1381 56.6977 15.9025 57.1243 15.4304Z" fill="#FAFAFF"/>
<path d="M68.5555 2.74634V19.9219H64.0062V2.74634H68.5555Z" fill="#FAFAFF"/>
<path d="M70.9111 9.87147C71.3984 8.86631 72.0628 8.09236 72.9073 7.55071C73.7507 7.00905 74.6907 6.73877 75.7273 6.73877C76.625 6.73877 77.399 6.91679 78.0481 7.27283C78.6983 7.62886 79.2009 8.10865 79.5569 8.71217V6.90051H84.1062V19.9219H79.5569V18.1114C79.2009 18.7149 78.694 19.1947 78.0362 19.5507C77.3784 19.9067 76.6087 20.0848 75.7273 20.0848C74.6907 20.0848 73.7507 19.8145 72.9073 19.2728C72.0638 18.7312 71.3984 17.954 70.9111 16.9401C70.4237 15.9263 70.1794 14.7464 70.1794 13.4004C70.1794 12.0533 70.4237 10.8777 70.9111 9.87147ZM78.872 11.427C78.415 10.9472 77.8538 10.7073 77.1895 10.7073C76.5089 10.7073 75.9434 10.9439 75.495 11.415C75.0457 11.8872 74.822 12.5483 74.822 13.3993C74.822 14.2351 75.0457 14.8962 75.495 15.3835C75.9434 15.8709 76.5089 16.1141 77.1895 16.1141C77.8549 16.1141 78.4161 15.8742 78.872 15.3944C79.3279 14.9146 79.5569 14.2492 79.5569 13.3982C79.5569 12.5645 79.3279 11.9067 78.872 11.427Z" fill="#FAFAFF"/>
<path d="M92.8801 7.43463C93.6074 7.00152 94.389 6.78442 95.2248 6.78442V11.6354H93.9483C92.9572 11.6354 92.2223 11.8297 91.7426 12.2162C91.2628 12.6037 91.0229 13.2767 91.0229 14.2352V19.922H86.4736V6.90057H91.0229V9.19853C91.5331 8.45607 92.1518 7.86773 92.8801 7.43463Z" fill="#FAFAFF"/>
<path d="M33.826 26.8135L30.5077 39.8349H25.4016L23.591 31.9435L21.711 39.8349H16.6277L13.3311 26.8135H17.8575L19.3197 35.4485L21.2464 26.8135H26.1202L28.1164 35.4713L29.5557 26.8135H33.826Z" fill="#FAFAFF"/>
<path d="M35.2535 24.9453C34.7661 24.5046 34.5219 23.951 34.5219 23.2856C34.5219 22.6051 34.765 22.0406 35.2535 21.5912C35.7408 21.1429 36.3867 20.9182 37.191 20.9182C37.9802 20.9182 38.6185 21.1429 39.1058 21.5912C39.5932 22.0406 39.8364 22.6051 39.8364 23.2856C39.8364 23.951 39.5932 24.5046 39.1058 24.9453C38.6185 25.3861 37.9802 25.6064 37.191 25.6064C36.3878 25.6064 35.7408 25.3861 35.2535 24.9453ZM39.4434 26.8135V39.8349H34.8942V26.8135H39.4434Z" fill="#FAFAFF"/>
<path d="M49.4939 35.9587V39.8349H47.5205C44.1935 39.8349 42.5305 38.1872 42.5305 34.8906V30.5964H40.9283V26.8124H42.5305L42.6532 19.6993L47.2024 19.6624L47.1036 26.8124H49.4711V30.5964H47.1036V34.96C47.1036 35.3161 47.1851 35.5712 47.3468 35.7264C47.5096 35.8816 47.7832 35.9587 48.1707 35.9587H49.4939Z" fill="#FAFAFF"/>
<path d="M63.4543 28.1944C64.3281 29.192 64.7656 30.5423 64.7656 32.2443V39.834H60.2163V32.8479C60.2163 32.1054 60.0231 31.5214 59.6367 31.0959C59.2491 30.6704 58.7314 30.4576 58.0812 30.4576C57.4006 30.4576 56.8665 30.6704 56.4801 31.0959C56.0926 31.5214 55.8994 32.1054 55.8994 32.8479V39.834H51.3501V22.6584H55.8994V28.6698C56.3021 28.0815 56.847 27.6061 57.5352 27.2424C58.2234 26.8788 59.0169 26.6975 59.9145 26.6975C61.4006 26.6975 62.5805 27.1968 63.4543 28.1944Z" fill="#FAFAFF"/>
<path d="M71.4966 23.4714V32.9651C71.4966 33.8476 71.7017 34.5282 72.112 35.0079C72.5223 35.4877 73.1443 35.7276 73.9801 35.7276C74.816 35.7276 75.4455 35.4845 75.8721 34.9971C76.2976 34.5097 76.5104 33.8324 76.5104 32.9661V23.4725H81.0597V32.9661C81.0597 34.4674 80.7427 35.7482 80.1077 36.8077C79.4727 37.8682 78.6108 38.6649 77.5199 39.199C76.429 39.733 75.2187 40.0001 73.8879 40.0001C72.5571 40.0001 71.3696 39.733 70.3253 39.199C69.2811 38.6649 68.4605 37.8725 67.8645 36.8196C67.2686 35.7678 66.9712 34.4836 66.9712 32.9672V23.4736H71.4966V23.4714Z" fill="#FAFAFF"/>
<path d="M85.7359 39.4052C84.8154 39.0111 84.0882 38.4695 83.5541 37.7802C83.02 37.092 82.7215 36.3148 82.6597 35.4475H87.07C87.1318 35.8654 87.3251 36.19 87.6507 36.4223C87.9753 36.6546 88.378 36.7707 88.8578 36.7707C89.229 36.7707 89.5232 36.6936 89.7403 36.5384C89.9563 36.3843 90.0648 36.1824 90.0648 35.9349C90.0648 35.6103 89.8868 35.3704 89.5308 35.2152C89.1747 35.0611 88.5864 34.8896 87.7669 34.705C86.8388 34.5194 86.0648 34.311 85.4461 34.0787C84.8274 33.8464 84.289 33.4676 83.8331 32.9411C83.3761 32.4158 83.1481 31.7037 83.1481 30.806C83.1481 30.032 83.3565 29.3319 83.7745 28.7056C84.1924 28.0793 84.8067 27.5799 85.6198 27.2087C86.4328 26.8375 87.4108 26.6519 88.556 26.6519C90.258 26.6519 91.5964 27.0698 92.5712 27.9056C93.546 28.7414 94.1104 29.8399 94.2656 31.2011H90.1571C90.08 30.7832 89.8977 30.4619 89.6122 30.2383C89.3256 30.0147 88.9435 29.9018 88.4637 29.9018C88.0925 29.9018 87.8103 29.9713 87.6171 30.1113C87.4238 30.2502 87.3272 30.4445 87.3272 30.6909C87.3272 31.0003 87.5053 31.2358 87.8613 31.3987C88.2173 31.5615 88.7894 31.7276 89.5796 31.898C90.5229 32.0999 91.3088 32.3235 91.9351 32.571C92.5614 32.8185 93.1107 33.2168 93.5829 33.7661C94.055 34.3154 94.2917 35.0622 94.2917 36.0055C94.2917 36.7642 94.0713 37.4448 93.6306 38.0483C93.1899 38.6519 92.5625 39.1273 91.7506 39.4757C90.9386 39.8242 89.9823 39.9979 88.8838 39.9979C87.705 39.9968 86.6564 39.8003 85.7359 39.4052Z" fill="#FAFAFF"/>
<path d="M0 9.1365L5.34057 0L15.8545 0.0835821L12.9259 2.98073C12.9259 2.98073 9.81818 3.02958 7.48874 5.15821C7.48874 5.15821 9.97558 3.53433 12.864 3.55495L14.3153 6.36743C7.13704 5.34491 6.10692 9.22334 6.26974 11.1815L4.34301 7.93704L0 9.1365Z" fill="#FAFAFF"/>
</svg>
